<svg aria-hidden="true" style="position: absolute; width: 0; height: 0; overflow: hidden;" version="1.1" xmlns="http://www.w3.org/2000/svg" xmlns:xlink="http://www.w3.org/1999/xlink">
<defs>
<symbol id="icon-down" viewBox="0 0 50 32">
<path d="M25.52 10.432l12.808-8.304c1.109-0.72 2.906-0.72 4.014 0 1.109 0.718 1.109 1.883 0 2.603l-14.051 9.112c-0.771 0.499-1.875 0.651-2.848 0.456-0.93 0.15-1.952-0.011-2.678-0.48l-13.957-9.054c-1.101-0.714-1.101-1.872 0-2.586s2.886-0.714 3.987 0l12.725 8.253zM25.491 26.546l17.464-11.421c1.512-0.989 3.963-0.989 5.475 0 1.51 0.989 1.51 2.592 0 3.581l-19.16 12.528c-1.051 0.688-2.558 0.896-3.886 0.627-1.266 0.208-2.661-0.014-3.651-0.661l-19.029-12.445c-1.501-0.982-1.501-2.574 0-3.557 1.501-0.981 3.936-0.981 5.437 0l17.352 11.347z"></path>
</symbol>
</defs>
</svg>
